<svg width="250" height="121" viewBox="0 0 250 121" fill="none" xmlns="http://www.w3.org/2000/svg">
<path d="M183.385 27.6679C168.821 51.1205 154.23 64.4771 143.1 72.006C139.927 74.1699 136.602 76.1073 133.152 77.8035C127.455 80.5809 120.916 81.1433 114.822 79.3799C114.31 79.2421 113.806 79.0741 113.298 78.8932C101.821 74.7799 86.5488 65.8166 75.2585 52.6711C73.1905 50.2478 71.391 47.611 69.8912 44.8062C66.0699 37.7037 64.246 29.5545 65.6226 21.5173C66.3395 17.5164 68.0182 13.7459 70.5165 10.5254C72.4733 7.9606 74.8852 5.77121 77.6338 4.0646C77.7728 3.97845 77.9074 3.89661 78.0463 3.81909C81.0641 1.9998 84.4733 0.914964 87.9949 0.653309C88.2511 0.627466 88.5073 0.623161 88.7635 0.614546C89.0197 0.605932 89.1977 0.614546 89.3931 0.614546H89.5277C89.8013 0.614546 90.0792 0.614546 90.3572 0.614546L82.7231 14.1176L81.2337 16.7535C80.0478 17.4512 78.9976 18.3542 78.1332 19.4197C71.1505 28.1202 81.6071 44.018 102.017 37.8803C114.154 34.2278 122.643 38.7202 127.311 43.7553C128.946 45.4564 130.234 47.454 131.107 49.6389C131.12 49.6536 131.131 49.6694 131.141 49.6862C131.214 45.7065 131.797 41.7522 132.878 37.919C139.301 15.5605 161.517 10.7838 166.285 10.4134C171.791 9.98266 178.135 9.23752 182.621 15.0091C187.107 20.7808 183.385 27.6679 183.385 27.6679Z" fill="#1E252B"/>
<path style="mix-blend-mode:multiply" opacity="0.5" d="M82.3557 14.0648L80.8981 16.7298C79.7376 17.4351 78.71 18.348 77.864 19.4252C77.864 19.4252 62.4002 22.4385 69.79 45.0777C66.0505 37.8971 64.2657 29.6583 65.6128 21.5328C66.3144 17.4879 67.9571 13.676 70.402 10.42L75.3696 10.8207L79.823 11.8353L82.3557 14.0648Z" fill="url(#paint0_linear_365_4613)"/>
<path d="M111.294 24.6844C109.614 29.0422 105.248 32.3463 100.55 32.5631C98.6194 32.6438 96.702 32.21 94.9925 31.3056C94.9836 31.2949 94.9715 31.2873 94.9579 31.284C92.649 30.045 90.7111 28.2099 89.3443 25.9679C87.8545 23.5787 87.129 20.8729 84.9613 18.9217C83.8756 17.9295 82.5653 17.218 81.144 16.849C80.1123 16.5811 79.0381 16.5207 77.9831 16.6712C64.5966 18.5921 65.6546 36.0364 69.8648 45.0772C66.0648 37.9269 64.2512 29.723 65.62 21.6318C66.8162 14.4988 71.4064 7.90793 77.5642 4.06612C77.7024 3.9794 77.8362 3.89702 77.9744 3.81897C79.5102 2.9295 81.1339 2.2029 82.8195 1.65091C83.9704 1.27643 85.1505 0.999394 86.3474 0.822707C86.8483 0.748993 87.3579 0.69696 87.8674 0.653599C88.1222 0.653599 88.377 0.623244 88.6318 0.614572C88.8865 0.6059 89.0636 0.614572 89.2579 0.614572H89.3918C91.2182 0.607164 93.0385 0.827092 94.8111 1.26933C98.8639 2.309 102.587 4.36497 105.633 7.2445C110.262 11.611 113.759 18.2843 111.294 24.6844Z" fill="url(#paint1_linear_365_4613)"/>
<path style="mix-blend-mode:multiply" opacity="0.5" d="M143.278 71.9716C140.077 74.1445 136.723 76.0899 133.242 77.7932C127.495 80.5821 120.899 81.1468 114.752 79.3761C133.702 80.2974 127.337 43.6335 127.337 43.6335C128.986 45.3418 130.286 47.3477 131.166 49.5416C131.179 49.5564 131.191 49.5723 131.201 49.5892C131.274 45.5929 131.863 41.6222 132.953 37.773L135.345 35.2688C135.345 35.2688 142.485 45.3376 143.506 48.2441C144.194 50.2336 143.677 62.7678 143.278 71.9716Z" fill="url(#paint2_linear_365_4613)"/>
<path d="M183.382 27.8848C179.396 34.3175 175.016 40.504 170.266 46.4099C155.485 64.7162 141.792 73.6056 133.101 77.8142C127.398 80.5807 120.852 81.1409 114.752 79.3845C131.515 82.0015 130.589 61.6831 131.041 49.782C131.054 49.7967 131.065 49.8125 131.076 49.8292C131.893 17.4253 160.741 11.153 166.253 10.7111C167.558 10.6039 168.918 10.4838 170.279 10.4409C174.674 10.2864 179.182 10.9042 182.608 15.2888C187.116 21.0505 183.382 27.8848 183.382 27.8848Z" fill="url(#paint3_linear_365_4613)"/>
<g clip-path="url(#clip0_365_4613)">
<path d="M143.563 109.99C142.219 109.99 141.175 110.305 140.431 110.937C140.054 111.272 139.758 111.685 139.566 112.146C139.373 112.607 139.289 113.105 139.318 113.603C139.291 114.061 139.368 114.519 139.545 114.945C139.721 115.37 139.993 115.751 140.339 116.061C141.017 116.637 141.959 116.926 143.164 116.929C144.949 116.929 146.328 116.105 147.303 114.457C148.278 112.809 148.766 110.504 148.769 107.542H152.53C152.53 110.245 152.133 112.556 151.34 114.474C150.664 116.241 149.467 117.772 147.9 118.872C146.284 119.917 144.377 120.448 142.44 120.389C140.244 120.389 138.545 119.798 137.344 118.616C136.144 117.433 135.543 115.762 135.543 113.603C135.543 111.666 136.121 110.119 137.277 108.959C138.433 107.8 140.051 107.132 142.129 106.954L143.563 109.99Z" fill="url(#paint4_linear_365_4613)"/>
<path d="M54.4779 104.935C53.9591 105.069 53.4087 105.018 52.924 104.793C52.4393 104.568 52.0516 104.182 51.8293 103.704C51.229 102.356 50.6639 100.98 50.0989 99.6314C49.7104 98.7429 50.5226 97.7126 51.5821 97.4809C52.1014 97.3425 52.6542 97.3908 53.1402 97.6173C53.6261 97.8438 54.0131 98.2333 54.2307 98.7152C54.8311 100.064 55.3961 101.408 55.9611 102.784C56.3531 103.673 55.5374 104.679 54.4779 104.935ZM82.3767 98.5251L75.4903 118.339C75.4903 119.273 74.7134 119.895 73.8658 120.068H73.8305C73.8165 120.081 73.7998 120.091 73.7815 120.097C73.7632 120.103 73.7437 120.105 73.7245 120.102C72.5238 120.31 71.1465 119.584 71.1112 118.339C69.4867 113.741 67.8623 109.108 66.2378 104.51C64.6486 109.108 63.0594 113.706 61.4349 118.339C61.4038 118.77 61.2217 119.178 60.9193 119.493C60.6169 119.808 60.2128 120.011 59.7752 120.068C59.7612 120.081 59.7445 120.091 59.7261 120.097C59.7078 120.103 59.6884 120.105 59.6692 120.102C58.4685 120.31 57.0912 119.584 57.0559 118.339C56.2083 115.953 55.3573 113.533 54.5097 111.148C53.5915 108.555 57.7622 107.483 58.6804 110.007C58.857 110.56 59.0335 111.079 59.2454 111.597C60.8346 106.999 62.4238 102.366 64.0129 97.7679C64.0483 96.8344 64.7899 96.2121 65.6727 96.0047H65.814C67.0147 95.7972 68.3567 96.4887 68.4273 97.7679C70.0518 102.37 71.6763 107.002 73.3007 111.597C74.9252 106.861 76.585 102.124 78.2095 97.4222C79.0959 94.8257 83.2631 95.9321 82.3802 98.5251H82.3767Z" fill="#23262F"/>
<path d="M88.9453 100.039V105.851H94.5286C97.2831 105.851 97.2831 110.035 94.5286 110.035H88.9453V115.877H94.5286C97.2831 115.877 97.2831 120.061 94.5286 120.061H86.8264C86.2576 120.053 85.7144 119.828 85.3122 119.434C84.91 119.04 84.6804 118.509 84.6722 117.952V97.9373C84.6804 97.3805 84.91 96.8487 85.3122 96.455C85.7144 96.0612 86.2576 95.8364 86.8264 95.8284H94.5286C97.2831 95.8284 97.2831 100.046 94.5286 100.046L88.9453 100.039Z" fill="#23262F"/>
<path d="M113.81 120.068H101.828C101.539 120.078 101.251 120.028 100.983 119.92C100.715 119.813 100.473 119.651 100.274 119.445C100.076 119.25 99.9212 119.018 99.818 118.763C99.7148 118.507 99.6658 118.234 99.6739 117.959V97.8682C99.6739 95.1715 103.982 95.1715 103.982 97.8682V115.846H113.803C116.565 115.85 116.565 120.068 113.81 120.068Z" fill="#23262F"/>
<path d="M131.959 120.068H119.987C119.698 120.078 119.41 120.028 119.142 119.92C118.874 119.813 118.632 119.651 118.433 119.445C118.235 119.25 118.08 119.018 117.977 118.763C117.874 118.507 117.825 118.234 117.833 117.959V97.8682C117.833 95.1715 122.141 95.1715 122.141 97.8682V115.846H131.959C134.717 115.85 134.717 120.068 131.959 120.068Z" fill="#23262F"/>
<path d="M149.373 120.137L141.511 110.294C140.474 108.995 139.591 107.585 138.881 106.09C138.23 104.691 137.897 103.17 137.906 101.633C137.906 99.6418 138.448 98.1033 139.534 97.0177C140.619 95.9321 142.158 95.3893 144.15 95.3893C146.139 95.3893 147.669 95.9183 148.74 96.9762C149.812 98.0341 150.348 99.5323 150.351 101.471V102.705H146.424V101.471C146.471 100.757 146.261 100.05 145.83 99.4724C145.623 99.2391 145.363 99.0555 145.072 98.9356C144.781 98.8158 144.465 98.7629 144.15 98.7809C143.816 98.7625 143.484 98.8201 143.177 98.9491C142.871 99.0781 142.599 99.275 142.384 99.5243C141.926 100.139 141.703 100.891 141.755 101.651C141.771 102.781 142.032 103.894 142.521 104.918C143.109 106.153 143.847 107.314 144.722 108.375L154.154 120.13L149.373 120.137Z" fill="url(#paint5_linear_365_4613)"/>
<path d="M169.929 110.145H160.006V118.201C160.006 120.828 155.803 120.828 155.803 118.201V107.414C155.803 107.056 155.949 106.713 156.207 106.461C156.465 106.208 156.815 106.066 157.181 106.066L161.701 106.031H169.929C172.613 106.031 172.613 110.145 169.929 110.145Z" fill="#23262F"/>
<path d="M178.617 97.8682V117.959C178.617 120.656 174.308 120.656 174.308 117.959V97.8682C174.308 95.1715 178.617 95.1715 178.617 97.8682Z" fill="#23262F"/>
<path d="M197.934 100.039H192.39C192.39 106.024 192.39 101.422 192.39 107.39C192.39 110.086 188.081 110.086 188.081 107.39C188.081 101.408 188.081 106.024 188.081 100.039H182.572C179.782 100.039 179.818 95.8214 182.572 95.8214H197.934C200.689 95.8283 200.689 100.039 197.934 100.039Z" fill="#23262F"/>
<path d="M54.4779 104.935C53.9591 105.069 53.4087 105.018 52.924 104.793C52.4393 104.568 52.0516 104.182 51.8293 103.704C51.229 102.356 50.6639 100.98 50.0989 99.6314C49.7104 98.7429 50.5226 97.7126 51.5821 97.481C52.1014 97.3425 52.6542 97.3909 53.1402 97.6174C53.6261 97.8438 54.0131 98.2333 54.2307 98.7153C54.8311 100.064 55.3961 101.409 55.9611 102.785C56.3531 103.673 55.5374 104.679 54.4779 104.935Z" fill="url(#paint6_linear_365_4613)"/>
<path d="M157.852 95.939H169.894C172.578 95.939 172.578 100.019 169.894 100.019H157.852C155.154 100.019 155.154 95.939 157.852 95.939Z" fill="#23262F"/>
<path d="M190.115 119.957C189.584 119.884 189.096 119.63 188.737 119.24C188.378 118.85 188.171 118.349 188.152 117.824C188.124 116.355 188.152 114.871 188.152 113.416C188.152 112.448 189.296 111.801 190.366 111.984C190.9 112.051 191.392 112.303 191.752 112.695C192.112 113.086 192.317 113.591 192.33 114.118C192.358 115.587 192.351 117.043 192.33 118.526C192.347 119.494 191.203 120.116 190.115 119.957Z" fill="url(#paint7_linear_365_4613)"/>
</g>
<defs>
<linearGradient id="paint0_linear_365_4613" x1="65.1751" y1="27.7511" x2="82.3557" y2="27.7511" gradientUnits="userSpaceOnUse">
<stop stop-color="#07C3A6"/>
<stop offset="1" stop-color="#0067FC"/>
</linearGradient>
<linearGradient id="paint1_linear_365_4613" x1="65.1796" y1="22.8329" x2="112.11" y2="22.8329" gradientUnits="userSpaceOnUse">
<stop stop-color="#EA4136"/>
<stop offset="1" stop-color="#FF8C53"/>
</linearGradient>
<linearGradient id="paint2_linear_365_4613" x1="114.752" y1="57.8285" x2="143.843" y2="57.8285" gradientUnits="userSpaceOnUse">
<stop stop-color="#07C3A6"/>
<stop offset="1" stop-color="#0067FC"/>
</linearGradient>
<linearGradient id="paint3_linear_365_4613" x1="122.446" y1="73.0864" x2="167.461" y2="20.068" gradientUnits="userSpaceOnUse">
<stop stop-color="#EA4136"/>
<stop offset="1" stop-color="#FF8C53"/>
</linearGradient>
<linearGradient id="paint4_linear_365_4613" x1="137.408" y1="118.991" x2="145.525" y2="106.927" gradientUnits="userSpaceOnUse">
<stop stop-color="#EA4136"/>
<stop offset="1" stop-color="#FF8C53"/>
</linearGradient>
<linearGradient id="paint5_linear_365_4613" x1="139.69" y1="117.554" x2="155.299" y2="105.502" gradientUnits="userSpaceOnUse">
<stop stop-color="#EA4136"/>
<stop offset="1" stop-color="#FF8C53"/>
</linearGradient>
<linearGradient id="paint6_linear_365_4613" x1="50.6656" y1="104.215" x2="55.6133" y2="99.5775" gradientUnits="userSpaceOnUse">
<stop stop-color="#EA4136"/>
<stop offset="1" stop-color="#FF8C53"/>
</linearGradient>
<linearGradient id="paint7_linear_365_4613" x1="188.601" y1="119.144" x2="193.278" y2="116.261" gradientUnits="userSpaceOnUse">
<stop stop-color="#EA4136"/>
<stop offset="1" stop-color="#FF8C53"/>
</linearGradient>
<clipPath id="clip0_365_4613">
<rect width="150" height="25" fill="white" transform="translate(50 95.3893)"/>
</clipPath>
</defs>
</svg>
