<svg width="20" height="25" viewBox="0 0 20 25" fill="none" xmlns="http://www.w3.org/2000/svg">
<path fill-rule="evenodd" clip-rule="evenodd" d="M13.125 0.766968L12.7812 0.858659C12.7812 0.858659 11.8789 1.04968 10.9688 1.59219C10.0586 2.13469 9 3.17767 9 4.74024C9 6.3028 10.0586 7.34579 10.9688 7.88829C11.3986 8.1452 11.6674 8.60955 11.5417 9.09429C11.4645 9.3924 11.3894 9.73679 11.3265 10.1245C11.1719 11.0789 8.46681 12.5645 7.5 12.5645C6.77734 12.5645 6.11719 12.7899 5.375 13.0841C4.63281 13.3783 3.84766 13.7756 3.125 14.1538C1.68359 14.9065 0.46875 15.6515 0.46875 15.6515C0.17837 15.8219 0 16.1333 0 16.47V21.352C0 21.7351 0.218273 22.0849 0.5625 22.2532C0.5625 22.2532 4.76172 24.301 10 24.301C15.2316 24.301 19.4268 22.2584 19.4375 22.2532C19.4378 22.253 19.4377 22.2531 19.438 22.253L19.4509 22.2467C19.7869 22.0823 20 21.7409 20 21.3669C20 16.4767 19.4414 12.2283 18.7812 9.08027C18.4531 7.50625 18.1172 6.21875 17.7812 5.22926C17.4453 4.23976 17.25 3.65905 16.75 3.12037C16.1758 2.49763 15.3672 1.98951 14.6875 1.59219C14.0078 1.19486 13.4375 0.919786 13.4375 0.919786L13.125 0.766968ZM12.9276 2.72813C13.1194 2.82434 13.2877 2.87822 13.7104 3.12837C14.3209 3.48628 15.0176 3.98657 15.2759 4.26751C15.1937 4.179 15.5969 4.81784 15.9022 5.71452C16.2074 6.61121 16.5558 7.85811 16.8728 9.37824C17.4755 12.2646 17.9491 16.2015 18 20.6773C17.2407 21.0159 14.1761 22.3398 10.0157 22.3398C5.82779 22.3398 2.7319 21.0044 2 20.6773V16.9828C2.32485 16.7826 2.95499 16.3978 4.06654 15.8128C4.75147 15.4549 5.49119 15.1163 6.13307 14.8584C6.77495 14.6006 7.35421 14.4582 7.51076 14.4582C8.78278 14.4582 9.80822 15.3857 9.98434 16.5825C10.0563 17.0604 10.467 17.4138 10.9502 17.4138H12.7646C13.4485 17.4138 13.9211 16.7296 13.6791 16.0899C12.2114 12.1299 13.9296 7.93123 13.9296 7.93123L14.3992 6.85366L13.2407 6.60736C13.2407 6.60736 12.6419 6.46882 12.0509 6.11476C11.4599 5.76071 11.0176 5.33738 11.0176 4.60617C11.0176 3.87497 11.4599 3.45164 12.0509 3.09758C12.4853 2.83589 12.7241 2.78586 12.9276 2.72813Z" fill="#F15223"/>
</svg>
