<svg width="19" height="20" viewBox="0 0 19 20" fill="none" xmlns="http://www.w3.org/2000/svg">
<path d="M15.31 2.47C15.23 2.47 15.15 2.45 15.08 2.41C13.16 1.42 11.5 1 9.50998 1C7.52998 1 5.64999 1.47 3.93999 2.41C3.69999 2.54 3.39999 2.45 3.25999 2.21C3.12999 1.97 3.21999 1.66 3.45999 1.53C5.31998 0.52 7.35998 0 9.50998 0C11.64 0 13.5 0.47 15.54 1.52C15.79 1.65 15.88 1.95 15.75 2.19C15.66 2.37 15.49 2.47 15.31 2.47ZM0.999985 7.72C0.899985 7.72 0.799985 7.69 0.709985 7.63C0.479985 7.47 0.429985 7.16 0.589985 6.93C1.57998 5.53 2.83999 4.43 4.33999 3.66C7.47999 2.04 11.5 2.03 14.65 3.65C16.15 4.42 17.41 5.51 18.4 6.9C18.56 7.12 18.51 7.44 18.28 7.6C18.05 7.76 17.74 7.71 17.58 7.48C16.68 6.22 15.54 5.23 14.19 4.54C11.32 3.07 7.64999 3.07 4.78999 4.55C3.42999 5.25 2.28999 6.25 1.38999 7.51C1.30999 7.65 1.15998 7.72 0.999985 7.72ZM7.24999 19.79C7.11999 19.79 6.98998 19.74 6.89998 19.64C6.02998 18.77 5.55999 18.21 4.88999 17C4.19999 15.77 3.83999 14.27 3.83999 12.66C3.83999 9.69 6.37998 7.27 9.49998 7.27C12.62 7.27 15.16 9.69 15.16 12.66C15.16 12.94 14.94 13.16 14.66 13.16C14.38 13.16 14.16 12.94 14.16 12.66C14.16 10.24 12.07 8.27 9.49998 8.27C6.92999 8.27 4.83999 10.24 4.83999 12.66C4.83999 14.1 5.15999 15.43 5.76999 16.51C6.40999 17.66 6.84999 18.15 7.61999 18.93C7.80999 19.13 7.80999 19.44 7.61999 19.64C7.50998 19.74 7.37999 19.79 7.24999 19.79ZM14.42 17.94C13.23 17.94 12.18 17.64 11.32 17.05C9.82998 16.04 8.93998 14.4 8.93998 12.66C8.93998 12.38 9.15998 12.16 9.43998 12.16C9.71998 12.16 9.93998 12.38 9.93998 12.66C9.93998 14.07 10.66 15.4 11.88 16.22C12.59 16.7 13.42 16.93 14.42 16.93C14.66 16.93 15.06 16.9 15.46 16.83C15.73 16.78 15.99 16.96 16.04 17.24C16.09 17.51 15.91 17.77 15.63 17.82C15.06 17.93 14.56 17.94 14.42 17.94ZM12.41 20C12.37 20 12.32 19.99 12.28 19.98C10.69 19.54 9.64999 18.95 8.55999 17.88C7.15999 16.49 6.38999 14.64 6.38999 12.66C6.38999 11.04 7.76999 9.72 9.46999 9.72C11.17 9.72 12.55 11.04 12.55 12.66C12.55 13.73 13.48 14.6 14.63 14.6C15.78 14.6 16.71 13.73 16.71 12.66C16.71 8.89 13.46 5.83 9.45998 5.83C6.61998 5.83 4.01998 7.41 2.84998 9.86C2.45998 10.67 2.25999 11.62 2.25999 12.66C2.25999 13.44 2.32998 14.67 2.92998 16.27C3.02998 16.53 2.89998 16.82 2.63998 16.91C2.37998 17.01 2.08999 16.87 1.99998 16.62C1.50998 15.31 1.26998 14.01 1.26998 12.66C1.26998 11.46 1.49998 10.37 1.94998 9.42C3.27998 6.63 6.22998 4.82 9.45998 4.82C14.01 4.82 17.71 8.33 17.71 12.65C17.71 14.27 16.33 15.59 14.63 15.59C12.93 15.59 11.55 14.27 11.55 12.65C11.55 11.58 10.62 10.71 9.46999 10.71C8.31998 10.71 7.38999 11.58 7.38999 12.65C7.38999 14.36 8.04998 15.96 9.25998 17.16C10.21 18.1 11.12 18.62 12.53 19.01C12.8 19.08 12.95 19.36 12.88 19.62C12.83 19.85 12.62 20 12.41 20Z" fill="#61676B"/>
</svg>
