<svg width="71" height="71" viewBox="0 0 71 71" fill="none" xmlns="http://www.w3.org/2000/svg">
<path opacity="0.5" d="M71 35.5C71 55.1061 55.1061 71 35.5 71C15.8939 71 0 55.1061 0 35.5C0 15.8939 15.8939 0 35.5 0C55.1061 0 71 15.8939 71 35.5ZM19.88 35.5C19.88 44.1267 26.8733 51.12 35.5 51.12C44.1267 51.12 51.12 44.1267 51.12 35.5C51.12 26.8733 44.1267 19.88 35.5 19.88C26.8733 19.88 19.88 26.8733 19.88 35.5Z" fill="#E02EA4"/>
<path d="M35.5 0C40.4971 5.959e-08 45.4379 1.05499 49.9992 3.09596C54.5606 5.13692 58.6396 8.11788 61.9695 11.8438C65.2995 15.5698 67.8052 19.9568 69.323 24.7178C70.8407 29.4789 71.3362 34.5067 70.777 39.4724L51.0219 37.2479C51.2679 35.0629 51.0499 32.8507 50.3821 30.7558C49.7143 28.661 48.6118 26.7307 47.1466 25.0913C45.6814 23.4519 43.8866 22.1402 41.8797 21.2422C39.8727 20.3442 37.6987 19.88 35.5 19.88V0Z" fill="#E02EA4"/>
</svg>
