<svg width="31" height="30" viewBox="0 0 31 30" fill="none" xmlns="http://www.w3.org/2000/svg">
<path d="M26.75 27.5C26.6382 27.5182 26.5243 27.5182 26.4125 27.5L19.65 25.625C18.3094 26.0557 16.908 26.2667 15.5 26.25C12.2692 26.3273 9.13955 25.1209 6.79658 22.8951C4.45361 20.6692 3.08839 17.6055 3 14.375C3.08839 11.1445 4.45361 8.08078 6.79658 5.85495C9.13955 3.62913 12.2692 2.42272 15.5 2.5C18.7308 2.42272 21.8604 3.62913 24.2034 5.85495C26.5464 8.08078 27.9116 11.1445 28 14.375C27.9976 16.6849 27.2912 18.9393 25.975 20.8375L27.9125 25.8375C27.9884 26.048 28.0065 26.2751 27.9647 26.495C27.9229 26.7149 27.8229 26.9195 27.675 27.0875C27.5581 27.217 27.4155 27.3206 27.2561 27.3916C27.0968 27.4627 26.9244 27.4996 26.75 27.5ZM19.6 23.0125C19.7122 23.0002 19.8253 23.0002 19.9375 23.0125L24.675 24.3375L23.425 21.0625C23.3406 20.8574 23.3124 20.6335 23.3431 20.4138C23.3739 20.1941 23.4625 19.9866 23.6 19.8125C24.8177 18.2603 25.4859 16.3478 25.5 14.375C25.4119 11.8075 24.3102 9.3795 22.436 7.62245C20.5618 5.8654 18.0678 4.92245 15.5 5C12.9322 4.92245 10.4382 5.8654 8.56401 7.62245C6.68982 9.3795 5.5881 11.8075 5.5 14.375C5.5881 16.9425 6.68982 19.3705 8.56401 21.1276C10.4382 22.8846 12.9322 23.8276 15.5 23.75C16.7545 23.7481 17.9988 23.5238 19.175 23.0875C19.3112 23.0381 19.4551 23.0127 19.6 23.0125Z" fill="#FF592C"/>
</svg>
