<svg width="31" height="30" viewBox="0 0 31 30" fill="none" xmlns="http://www.w3.org/2000/svg">
<path fill-rule="evenodd" clip-rule="evenodd" d="M15.5965 29.1389C9.03151 28.9929 4.25 24.7244 4.25 19.2983C4.25 14.6855 6.61996 11.5844 10.1798 7.89132C12.5038 5.48027 13.3867 3.22847 13.9728 1.73363C14.2845 0.938776 14.5122 0.35794 14.8281 0.0809735C15.738 -0.716874 20.6194 4.65153 21.9597 6.59244C25.3246 11.4651 26.523 13.7222 26.5705 19.0585C26.618 24.3949 22.1616 29.285 15.5965 29.1389ZM16.7638 18.5107L16.7635 18.5104C16.0092 17.5391 15.2416 16.5507 14.7351 15.5C14.2553 16.1618 13.7331 16.9539 13.2401 17.8472C12.0025 20.09 11.375 22.1928 11.375 24.0975C11.375 26.525 13.1974 28.5 15.4375 28.5C17.6776 28.5 19.5 26.525 19.5 24.0975C19.5 22.0339 18.109 20.2429 16.7638 18.5107Z" fill="#FF592C"/>
</svg>
