<svg width="55" height="36" viewBox="0 0 55 36" fill="none" xmlns="http://www.w3.org/2000/svg">
<path fill-rule="evenodd" clip-rule="evenodd" d="M19.125 21.9C20.4746 20.7318 21.25 19.0349 21.25 17.25C21.25 13.7982 18.4518 11 15 11C11.5482 11 8.75 13.7982 8.75 17.25C8.74998 19.0349 9.52544 20.7318 10.875 21.9C7.30118 23.5183 5.00376 27.0769 5 31C5 31.6904 5.55964 32.25 6.25 32.25C6.94036 32.25 7.5 31.6904 7.5 31C7.5 26.8579 10.8579 23.5 15 23.5C19.1421 23.5 22.5 26.8579 22.5 31C22.5 31.6904 23.0596 32.25 23.75 32.25C24.4404 32.25 25 31.6904 25 31C24.9962 27.0769 22.6988 23.5183 19.125 21.9V21.9ZM15 21C12.9289 21 11.25 19.3211 11.25 17.25C11.25 15.1789 12.9289 13.5 15 13.5C17.0711 13.5 18.75 15.1789 18.75 17.25C18.75 18.2446 18.3549 19.1984 17.6517 19.9017C16.9484 20.6049 15.9946 21 15 21Z" fill="#FF592C"/>
<path fill-rule="evenodd" clip-rule="evenodd" d="M44.125 21.9C45.4746 20.7318 46.25 19.0349 46.25 17.25C46.25 13.7982 43.4518 11 40 11C36.5482 11 33.75 13.7982 33.75 17.25C33.75 19.0349 34.5254 20.7318 35.875 21.9C32.3012 23.5183 30.0038 27.0769 30 31C30 31.6904 30.5596 32.25 31.25 32.25C31.9404 32.25 32.5 31.6904 32.5 31C32.5 26.8579 35.8579 23.5 40 23.5C44.1421 23.5 47.5 26.8579 47.5 31C47.5 31.6904 48.0596 32.25 48.75 32.25C49.4404 32.25 50 31.6904 50 31C49.9962 27.0769 47.6988 23.5183 44.125 21.9V21.9ZM40 21C37.9289 21 36.25 19.3211 36.25 17.25C36.25 15.1789 37.9289 13.5 40 13.5C42.0711 13.5 43.75 15.1789 43.75 17.25C43.75 18.2446 43.3549 19.1984 42.6517 19.9017C41.9484 20.6049 40.9946 21 40 21Z" fill="#FF592C"/>
</svg>
