<svg width="22" height="23" viewBox="0 0 22 23" fill="none" xmlns="http://www.w3.org/2000/svg">
<path d="M10.875 20.476C10.4079 20.476 10.0292 20.8547 10.0292 21.3218C10.0292 21.7889 10.4079 22.1676 10.875 22.1676H10.8752C14.8315 22.1657 18.4669 19.9902 20.3383 16.5045C23.1458 11.2754 21.1827 4.76033 15.9536 1.95281C11.4892 -0.444094 6.09728 0.644841 2.86667 4.26536L2.02083 7.2593V7.5843H2.02105H6.1875C6.65462 7.5843 7.03333 7.20558 7.03333 6.73846C7.03333 6.27134 6.65462 5.89263 6.1875 5.89263H3.72145C5.41414 3.70492 8.0278 2.38036 10.8465 2.37596C15.8446 2.36823 19.9027 6.41377 19.9104 11.412C19.9182 16.4099 15.873 20.468 10.875 20.476ZM10.875 20.476V20.801M10.875 20.476C10.8748 20.476 10.8747 20.476 10.8745 20.476L10.875 20.801M10.875 20.801C10.5874 20.801 10.3542 21.0342 10.3542 21.3218C10.3542 21.6094 10.5874 21.8426 10.875 21.8426V20.801ZM10.8059 12.601H13.375C13.8421 12.601 14.2 12.9588 14.2 13.426C14.2 13.8931 13.8421 14.251 13.375 14.251H9.87522H9.875V13.926L10.8059 12.601ZM10.8059 12.601L11.6875 9.51525L11.7 9.47148V9.42596C11.7 8.95884 11.3421 8.60096 10.875 8.60096C10.4228 8.60096 10.0729 8.93638 10.0511 9.38162L10.8059 12.601Z" fill="#FF592C" stroke="#FF592C" stroke-width="0.65"/>
</svg>
