<svg width="18" height="19" viewBox="0 0 18 19" fill="none" xmlns="http://www.w3.org/2000/svg">
<path fill-rule="evenodd" clip-rule="evenodd" d="M9.58886 0.620373C9.26872 0.283106 8.73128 0.283106 8.41114 0.620373L0.257618 9.65506C0.0917906 9.83881 0 10.0775 0 10.325V16.8474C0 17.5571 0.576 18.1331 1.28571 18.1331H5.14286C5.85257 18.1331 6.42857 17.5571 6.42857 16.8474V11.7045C6.42857 10.9948 7.00457 10.4188 7.71429 10.4188H10.2857C10.9954 10.4188 11.5714 10.9948 11.5714 11.7045V16.8474C11.5714 17.5571 12.1474 18.1331 12.8571 18.1331H16.7143C17.424 18.1331 18 17.5571 18 16.8474V10.325C18 10.0775 17.9082 9.8388 17.7424 9.65506L9.58886 0.620373Z" fill="#FF592C"/>
</svg>
