<svg width="31" height="30" viewBox="0 0 31 30" fill="none" xmlns="http://www.w3.org/2000/svg">
<path fill-rule="evenodd" clip-rule="evenodd" d="M10.5 5C9.11929 5 8 6.11929 8 7.5V22.5C8 23.8807 9.11929 25 10.5 25H20.5C21.8807 25 23 23.8807 23 22.5V12.5H25.5V22.5C25.5 25.2614 23.2614 27.5 20.5 27.5H10.5C7.73858 27.5 5.5 25.2614 5.5 22.5V7.5C5.5 4.73858 7.73858 2.5 10.5 2.5H15.5V5H10.5Z" fill="#F15223"/>
<path fill-rule="evenodd" clip-rule="evenodd" d="M17.9823 7.5V5.12502C20.437 5.62213 22.3705 7.55109 22.8688 10H20.4882C19.1042 10 17.9823 8.88071 17.9823 7.5ZM25.5 11.25V12.5H20.4882C17.7202 12.5 15.4764 10.2614 15.4764 7.5V2.5H16.7293C21.5733 2.5 25.5 6.41751 25.5 11.25ZM10.5 13.7486C10.5 13.0586 11.061 12.4986 11.753 12.4986C12.445 12.4986 13.0059 13.0586 13.0059 13.7486V21.2486C13.0059 21.9386 12.445 22.4986 11.753 22.4986C11.061 22.4986 10.5 21.9386 10.5 21.2486V13.7486ZM14.2589 16.2486C14.2589 15.5586 14.8202 14.9986 15.5119 14.9986C16.2035 14.9986 16.7648 15.5586 16.7648 16.2486V21.2486C16.7648 21.9386 16.2035 22.4986 15.5119 22.4986C14.8202 22.4986 14.2589 21.9386 14.2589 21.2486V16.2486ZM18.0178 18.7486C18.0178 18.0586 18.5791 17.4986 19.2707 17.4986C19.9624 17.4986 20.5237 18.0586 20.5237 18.7486V21.2486C20.5237 21.9386 19.9624 22.4986 19.2707 22.4986C18.5791 22.4986 18.0178 21.9386 18.0178 21.2486V18.7486Z" fill="#FF592C"/>
</svg>
