<svg width="19" height="20" viewBox="0 0 19 20" fill="none" xmlns="http://www.w3.org/2000/svg">
<path fill-rule="evenodd" clip-rule="evenodd" d="M12.3217 0.0127423C12.5057 0.0276446 12.6518 0.173518 12.6668 0.35746C12.8412 2.48534 11.2009 4.16667 9.18242 4.16667C9.0831 4.16667 8.97935 4.16281 8.87079 4.15434C8.68611 4.13981 8.53927 3.99299 8.52454 3.80816C8.35277 1.61783 10.1038 -0.168998 12.3217 0.0127423ZM10.3045 4.7506C13.2321 3.29277 15.8184 4.81813 17.144 6.56911C18.1667 7.9195 19.1036 10.3171 17.7596 14.0703C16.9069 16.4504 14.7299 19.9916 12.2293 19.9934C11.27 19.9934 10.7084 19.6001 10.2388 19.2713C9.9014 19.0351 9.61148 18.8321 9.2557 18.8321C8.9682 18.8321 8.64046 19.0348 8.25811 19.2714C7.72286 19.6026 7.08057 20 6.29181 20C4.05439 20 1.81407 17.017 0.757586 14.0703C-0.584945 10.3215 0.358374 7.91744 1.38581 6.56088C2.70807 4.81469 5.29052 3.29387 8.21084 4.75013C8.59606 4.94106 8.89275 5.02658 9.25574 5.04938C9.61971 5.02637 9.93574 4.93607 10.3045 4.7506Z" fill="#F15223"/>
</svg>
