<svg width="31" height="32" viewBox="0 0 31 32" fill="none" xmlns="http://www.w3.org/2000/svg">
<path fill-rule="evenodd" clip-rule="evenodd" d="M21.8557 16.35C23.8801 14.5977 25.0432 12.0524 25.0432 9.375C25.0432 4.19733 20.8459 0 15.6682 0C10.4905 0 6.29321 4.19733 6.29321 9.375C6.29318 12.0524 7.45637 14.5977 9.48071 16.35C4.11998 18.7774 0.673849 24.1153 0.668213 30C0.668213 31.0355 1.50768 31.875 2.54321 31.875C3.57875 31.875 4.41821 31.0355 4.41821 30C4.41821 23.7868 9.45501 18.75 15.6682 18.75C21.8814 18.75 26.9182 23.7868 26.9182 30C26.9182 31.0355 27.7577 31.875 28.7932 31.875C29.8287 31.875 30.6682 31.0355 30.6682 30C30.6626 24.1153 27.2164 18.7774 21.8557 16.35ZM15.6682 15C12.5616 15 10.0432 12.4816 10.0432 9.375C10.0432 6.2684 12.5616 3.75 15.6682 3.75C18.7748 3.75 21.2932 6.2684 21.2932 9.375C21.2932 10.8668 20.7006 12.2976 19.6457 13.3525C18.5908 14.4074 17.1601 15 15.6682 15Z" fill="#FF592C"/>
</svg>
