<svg width="24" height="24" viewBox="0 0 24 24" fill="none" xmlns="http://www.w3.org/2000/svg">
<path fill-rule="evenodd" clip-rule="evenodd" d="M5 11C5 7.6863 7.6863 5 11 5C14.3137 5 17 7.6863 17 11C17 14.3137 14.3137 17 11 17C7.6863 17 5 14.3137 5 11ZM11 3C6.58173 3 3 6.58173 3 11C3 15.4183 6.58173 19 11 19C12.8066 19 14.4734 18.4012 15.8126 17.3911L19.2929 20.7071C19.6834 21.0976 20.3166 21.0976 20.7071 20.7071C21.0976 20.3166 21.0976 19.6834 20.7071 19.2929L17.2478 15.997C18.3442 14.6278 19 12.8905 19 11C19 6.58173 15.4183 3 11 3Z" fill="#040415" fill-opacity="0.4"/>
</svg>
