<svg width="21" height="20" viewBox="0 0 21 20" fill="none" xmlns="http://www.w3.org/2000/svg">
<path d="M8.56791 9.99987H2.91334L1.02243 2.13481C1.01032 2.0891 1.00294 2.04217 1.00043 1.99481C0.979386 1.27381 1.73881 0.773802 2.39685 1.1038L20.1296 9.99987L2.39685 18.8959C1.74646 19.2229 0.996602 18.7369 1.00043 18.0289C1.00236 17.9657 1.01299 17.903 1.03199 17.8429L2.43511 12.9999" fill="#FF592C"/>
<path d="M8.56791 9.99987H2.91334L1.02243 2.13481C1.01032 2.0891 1.00294 2.04217 1.00043 1.99481C0.979386 1.27381 1.73881 0.773802 2.39685 1.1038L20.1296 9.99987L2.39685 18.8959C1.74646 19.2229 0.996602 18.7369 1.00043 18.0289C1.00236 17.9657 1.01299 17.903 1.03199 17.8429L2.43511 12.9999" stroke="white" stroke-width="1.66667" stroke-linecap="round" stroke-linejoin="round"/>
</svg>
