<svg width="24" height="24" viewBox="0 0 24 24" fill="none" xmlns="http://www.w3.org/2000/svg">
<path fill-rule="evenodd" clip-rule="evenodd" d="M14.3646 2.22462C14.3646 3.45324 15.3606 4.44923 16.5892 4.44923C17.8178 4.44923 18.8138 3.45324 18.8138 2.22462C18.8138 0.995994 17.8178 0 16.5892 0C15.3606 0 14.3646 0.995994 14.3646 2.22462ZM8.79706 11.3428C8.28753 12.2128 5.25614 17.3668 2.60506 21.3235C1.51722 22.7229 3.6906 24.3951 4.77706 22.9985C5.82157 21.6555 6.86655 19.8005 7.91163 17.9452C8.64769 16.6386 9.3838 15.3318 10.1198 14.2038C10.2269 14.4688 10.4198 14.7092 10.7263 14.8837C12.0283 15.624 13.1678 16.6154 14.1343 17.7549C13.9027 18.6721 13.671 19.5889 13.4393 20.5055C13.2854 21.1144 13.1315 21.7232 12.9777 22.332C12.5443 24.0489 15.2448 24.5335 15.6744 22.8277C16.0797 21.2271 16.484 19.6274 16.8888 18.0249C16.9243 17.8846 16.9321 17.7554 16.9284 17.6308C17.0272 17.2971 16.9769 16.9177 16.6834 16.5489C15.6315 15.2266 14.4311 14.0806 13.0571 13.1331C13.682 11.9183 14.3341 10.7202 15.002 9.52938C16.1046 11.0566 17.5589 12.2169 19.5837 12.8095C21.194 13.2803 21.8771 10.7755 20.2737 10.3066C18.2254 9.70662 17.0046 8.26892 16.1544 6.42785C15.8877 5.14615 14.414 4.25908 13.1568 4.59554C13.1417 4.59554 13.1273 4.59471 13.1129 4.59387C13.0902 4.59256 13.0676 4.59125 13.0428 4.59323C11.4981 4.71284 9.95352 4.83285 8.40853 4.95288L8.05352 4.98046C6.81908 5.07632 6.1119 6.77498 5.57085 8.07461C5.42674 8.42076 5.29442 8.7386 5.16706 8.99031C4.41245 10.4802 6.65137 11.7946 7.40783 10.3006C7.60587 9.90979 7.80367 9.51879 8.00149 9.12774C8.273 8.59103 8.54457 8.05421 8.81691 7.51754C8.97291 7.50544 9.12904 7.49334 9.28523 7.48124C9.81433 7.44024 10.3442 7.39918 10.8731 7.35785C10.2269 8.51677 9.59368 9.68354 8.98814 10.8637C8.90414 11.0248 8.84322 11.1849 8.79706 11.3428Z" fill="#00876D"/>
</svg>
