<svg width="80" height="23" viewBox="0 0 80 23" fill="none" xmlns="http://www.w3.org/2000/svg">
<path opacity="0.497489" fill-rule="evenodd" clip-rule="evenodd" d="M69 10.5C69 13.5376 71.4624 16 74.5 16C77.5376 16 80 13.5376 80 10.5C80 7.46243 77.5376 5 74.5 5C71.4624 5 69 7.46243 69 10.5Z" fill="white"/>
<path opacity="0.497489" fill-rule="evenodd" clip-rule="evenodd" d="M0 2.5C0 3.88071 1.11929 5 2.5 5C3.88071 5 5 3.88071 5 2.5C5 1.11929 3.88071 0 2.5 0C1.11929 0 0 1.11929 0 2.5Z" fill="white"/>
<path opacity="0.497489" fill-rule="evenodd" clip-rule="evenodd" d="M22 20C22 21.6569 23.3431 23 25 23C26.6569 23 28 21.6569 28 20C28 18.3431 26.6569 17 25 17C23.3431 17 22 18.3431 22 20Z" fill="white"/>
</svg>
