<svg width="37" height="55" viewBox="0 0 37 55" fill="none" xmlns="http://www.w3.org/2000/svg">
<path fill-rule="evenodd" clip-rule="evenodd" d="M1.97449 18.9653C1.97449 18.9653 7.40458 19.5873 19.8175 16.7702C32.2305 13.9531 34.7329 18.7634 34.7329 18.7634L32.697 37.6249L27.3085 53.7552L9.13097 52.9738C9.13097 52.9738 6.07341 45.5801 5.18084 40.7563C4.28828 35.9324 1.97449 18.9653 1.97449 18.9653Z" fill="#7FE3F0"/>
<path fill-rule="evenodd" clip-rule="evenodd" d="M25.1109 52.6679H11.7733C11.2303 52.6679 10.7144 52.4085 10.1952 51.8799C6.97951 48.5936 1.39199 23.2265 3.00737 9.48708C4.03276 10.136 5.60367 10.4267 6.60742 10.4727C7.98651 10.5329 9.35694 10.0273 10.7566 8.92634C12.127 10.0108 13.452 10.5416 14.7846 10.5416C14.7986 10.5416 14.8138 10.5405 14.8289 10.5405C16.1734 10.5296 17.5179 9.97802 18.9207 8.85849C20.3041 9.95394 21.6865 10.4672 22.9877 10.4705C24.3311 10.4584 25.6745 9.90798 27.0763 8.79283C28.4413 9.89923 29.6397 10.4015 30.876 10.4015H30.9161C31.8582 10.3939 33.6128 10.0896 34.61 9.45163C34.2665 25.2815 29.9296 48.575 26.7063 51.8723C26.1839 52.4063 25.6615 52.6679 25.1109 52.6679ZM4.01173 0.999899C1.78536 1.63837 1.08886 2.5024 1.01019 4.28298C0.0295404 26.4806 4.48483 48.9461 9.16463 53.7267C9.82371 54.4 10.481 54.7292 11.1721 54.7292H25.5812C26.281 54.7292 26.9454 54.397 27.6104 53.7169C33.0934 48.1095 37.0932 21.4473 36.3532 4.30596C36.2762 2.52145 35.3447 1.68673 33.3549 1.01194C31.3652 0.337147 23.8984 0.00194858 19.1701 8.8175e-06C14.1173 -0.00206407 6.23809 0.361433 4.01173 0.999899Z" fill="#ADE9F0"/>
<path fill-rule="evenodd" clip-rule="evenodd" d="M27.1416 31.188C27.7397 31.188 28.2232 31.6772 28.2232 32.2823C28.2232 32.8864 27.7397 33.3767 27.1416 33.3767C26.5445 33.3767 26.0599 32.8864 26.0599 32.2823C26.0599 31.6772 26.5445 31.188 27.1416 31.188Z" fill="white"/>
<path fill-rule="evenodd" clip-rule="evenodd" d="M10.0816 25C10.6798 25 11.1633 25.4892 11.1633 26.0944C11.1633 26.6984 10.6798 27.1887 10.0816 27.1887C9.48457 27.1887 9 26.6984 9 26.0944C9 25.4892 9.48457 25 10.0816 25Z" fill="white"/>
<path fill-rule="evenodd" clip-rule="evenodd" d="M19 34.75C19 35.9943 17.9943 37 16.75 37C15.508 37 14.5 35.9943 14.5 34.75C14.5 33.5057 15.508 32.5 16.75 32.5C17.9943 32.5 19 33.5057 19 34.75Z" fill="white"/>
<path fill-rule="evenodd" clip-rule="evenodd" d="M14.4566 41.5C15.0548 41.5 15.5383 41.9892 15.5383 42.5944C15.5383 43.1995 15.0548 43.6887 14.4566 43.6887C13.8596 43.6887 13.375 43.1995 13.375 42.5944C13.375 41.9892 13.8596 41.5 14.4566 41.5Z" fill="white"/>
</svg>
