<svg width="71" height="71" viewBox="0 0 71 71" fill="none" xmlns="http://www.w3.org/2000/svg">
<g clip-path="url(#clip0_783_4292)">
<path d="M58.726 2.7627H12.334C10.8913 2.76639 9.46345 3.05541 8.13281 3.61312C6.80217 4.17084 5.59498 4.98623 4.58074 6.01236C3.56649 7.03849 2.76522 8.2551 2.22304 9.59215C1.68087 10.9292 1.4085 12.3603 1.42163 13.803L5.51378 57.3248C5.51754 60.2178 6.66845 62.9912 8.71411 65.0369C10.7598 67.0826 13.5332 68.2335 16.4262 68.2372H54.6623C57.5356 68.2411 60.2941 67.1102 62.3377 65.0905C64.3814 63.0708 65.5447 60.3258 65.5747 57.4527L69.6669 13.6751C69.665 12.2402 69.3805 10.8197 68.8297 9.49476C68.2789 8.1698 67.4725 6.9663 66.4565 5.95299C65.4405 4.93968 64.235 4.13639 62.9086 3.589C61.5822 3.04161 60.1609 2.76084 58.726 2.7627Z" fill="#FF296A"/>
<path d="M49.2203 12.3822C40.2967 9.65808 30.7634 9.65808 21.8398 12.3822C21.321 12.5349 20.8421 12.7995 20.4368 13.1576C20.0315 13.5156 19.7098 13.9582 19.4943 14.4542C19.2789 14.9502 19.1749 15.4875 19.1898 16.028C19.2047 16.5686 19.3381 17.0993 19.5806 17.5826L24.1558 26.7474C24.5233 27.4856 25.1271 28.0797 25.8713 28.4351C26.6154 28.7904 27.4571 28.8866 28.2622 28.7082C33.0371 27.5815 38.0088 27.5815 42.7837 28.7082C43.5889 28.8891 44.4315 28.7942 45.1763 28.4385C45.921 28.0829 46.5246 27.4873 46.89 26.7474L51.4653 17.5826C51.708 17.1002 51.8419 16.5704 51.8577 16.0306C51.8735 15.4909 51.7708 14.9542 51.5567 14.4584C51.3427 13.9626 51.0226 13.5197 50.6189 13.161C50.2152 12.8023 49.7378 12.5365 49.2203 12.3822Z" fill="white"/>
<path d="M59.678 1.39868H11.3678C9.86425 1.39859 8.3756 1.69679 6.98808 2.27602C5.60056 2.85525 4.34174 3.704 3.28451 4.77311C2.22729 5.84223 1.39268 7.11047 0.829007 8.50438C0.265335 9.8983 -0.0161958 11.3902 0.000719405 12.8937L4.26338 58.2342C4.26338 61.2489 5.46099 64.1402 7.59273 66.272C9.72448 68.4037 12.6157 69.6013 15.6305 69.6013H55.4153C58.4081 69.6015 61.2801 68.4215 63.4082 66.3173C65.5363 64.2131 66.7488 61.3546 66.7825 58.3621L71.0451 12.7658C71.0451 9.75104 69.8475 6.85978 67.7158 4.72803C65.584 2.59628 62.6928 1.39868 59.678 1.39868ZM63.9407 58.2342C63.9407 60.4953 63.0425 62.6637 61.4437 64.2625C59.8449 65.8613 57.6764 66.7595 55.4153 66.7595H15.6305C14.5001 66.7597 13.3809 66.535 12.3382 66.0986C11.2954 65.6622 10.3498 65.0227 9.5565 64.2175C8.76316 63.4122 8.13788 62.4573 7.71704 61.4081C7.2962 60.359 7.0882 59.2366 7.10516 58.1063L2.8425 12.7658C2.8425 10.5047 3.7407 8.33628 5.33951 6.73747C6.93832 5.13866 9.10677 4.24046 11.3678 4.24046H59.678C61.9171 4.24021 64.0664 5.12083 65.6616 6.69209C67.2568 8.26334 68.1698 10.3991 68.2033 12.6379L63.9407 58.2342Z" fill="#AC1A46"/>
<path d="M50.1297 11.8989C40.6088 8.99169 30.437 8.99169 20.9162 11.8989C20.3622 12.0623 19.8507 12.3452 19.4179 12.7277C18.985 13.1102 18.6414 13.583 18.411 14.1127C18.1807 14.6424 18.0694 15.2162 18.0849 15.7936C18.1004 16.371 18.2423 16.938 18.5007 17.4546L23.3885 27.2303C23.7801 28.0171 24.4237 28.6502 25.2168 29.0287C26.0099 29.4072 26.9069 29.5094 27.7649 29.319C32.8576 28.1183 38.1598 28.1183 43.2526 29.319C44.1106 29.512 45.0086 29.411 45.8023 29.0322C46.5959 28.6534 47.2393 28.0188 47.6289 27.2303L52.5167 17.4546C52.7755 16.9399 52.9186 16.3747 52.9359 15.7989C52.9532 15.223 52.8443 14.6503 52.6168 14.1209C52.3894 13.5916 52.0489 13.1184 51.6193 12.7346C51.1896 12.3507 50.6812 12.0655 50.1297 11.8989ZM50.0018 16.1616L45.1139 25.9373C45.0052 26.1575 44.8255 26.3346 44.6039 26.4403C44.3822 26.5459 44.1315 26.574 43.892 26.5199C41.6077 26.0053 39.2828 25.6915 36.9438 25.5821V18.2929C36.9438 17.9651 36.8136 17.6507 36.5817 17.4188C36.3499 17.187 36.0355 17.0568 35.7076 17.0568H35.3382C35.0104 17.0568 34.6959 17.187 34.4641 17.4188C34.2323 17.6507 34.102 17.9651 34.102 18.2929V25.5821C31.7631 25.6918 29.4382 26.0056 27.1539 26.5199C26.9144 26.574 26.6636 26.5459 26.442 26.4403C26.2204 26.3346 26.0407 26.1575 25.9319 25.9373L21.0441 16.1616C20.9707 16.0171 20.9299 15.8583 20.9245 15.6963C20.9191 15.5344 20.9493 15.3732 21.013 15.2242C21.0767 15.0752 21.1723 14.9419 21.293 14.8338C21.4138 14.7258 21.5568 14.6455 21.7119 14.5986C30.7087 11.8464 40.3229 11.8464 49.3198 14.5986C49.4739 14.6425 49.6163 14.72 49.7367 14.8257C49.8571 14.9314 49.9525 15.0625 50.016 15.2096C50.09 15.3629 50.1273 15.5313 50.1249 15.7015C50.1224 15.8717 50.0802 16.039 50.0018 16.19V16.1616Z" fill="#AC1A46"/>
</g>
<defs>
<clipPath id="clip0_783_4292">
<rect width="71" height="71" fill="white"/>
</clipPath>
</defs>
</svg>
