<svg width="30" height="18" viewBox="0 0 30 18" fill="none" xmlns="http://www.w3.org/2000/svg">
<path d="M16.9927 10.15H18.9575V7.85226H11.5422V10.15H16.9927Z" stroke="white" stroke-miterlimit="10"/>
<path d="M4.08864 7.85226H1.63871C1.41635 7.85226 1.23608 8.03253 1.23608 8.25489V9.74591C1.23608 9.96827 1.41635 10.1485 1.63871 10.1485H4.08864C4.311 10.1485 4.49127 9.96827 4.49127 9.74591V8.25489C4.49127 8.03253 4.311 7.85226 4.08864 7.85226Z" stroke="white" stroke-miterlimit="10"/>
<path d="M11.1409 0.617065H8.41923C8.19687 0.617065 8.0166 0.797329 8.0166 1.0197V16.9826C8.0166 17.205 8.19687 17.3852 8.41923 17.3852H11.1409C11.3633 17.3852 11.5435 17.205 11.5435 16.9826V1.0197C11.5435 0.797329 11.3633 0.617065 11.1409 0.617065Z" stroke="white" stroke-miterlimit="10"/>
<path d="M7.6155 3.60135H4.89384C4.67147 3.60135 4.49121 3.78161 4.49121 4.00398V13.9986C4.49121 14.221 4.67147 14.4012 4.89384 14.4012H7.6155C7.83787 14.4012 8.01813 14.221 8.01813 13.9986V4.00398C8.01813 3.78161 7.83787 3.60135 7.6155 3.60135Z" stroke="white" stroke-miterlimit="10"/>
<path d="M26.4111 10.1482H28.861C29.0834 10.1482 29.2637 9.9679 29.2637 9.74553V8.25452C29.2637 8.03216 29.0834 7.85189 28.861 7.85189H26.4111C26.1888 7.85189 26.0085 8.03216 26.0085 8.25452V9.74553C26.0085 9.9679 26.1888 10.1482 26.4111 10.1482Z" stroke="white" stroke-miterlimit="10"/>
<path d="M19.3586 17.3829H22.0803C22.3026 17.3829 22.4829 17.2027 22.4829 16.9803L22.4829 1.01738C22.4829 0.795017 22.3026 0.614754 22.0803 0.614754H19.3586C19.1363 0.614754 18.956 0.795017 18.956 1.01738L18.956 16.9803C18.956 17.2027 19.1363 17.3829 19.3586 17.3829Z" stroke="white" stroke-miterlimit="10"/>
<path d="M22.8843 14.4009H25.6059C25.8283 14.4009 26.0085 14.2206 26.0085 13.9982V4.00364C26.0085 3.78127 25.8283 3.60101 25.6059 3.60101H22.8843C22.6619 3.60101 22.4816 3.78127 22.4816 4.00364V13.9982C22.4816 14.2206 22.6619 14.4009 22.8843 14.4009Z" stroke="white" stroke-miterlimit="10"/>
</svg>
